Title                            : Inglourious Basterds
Year                             : 2009
Genre                            : Drama | War
iMDB URL                         : http://www.imdb.com/title/tt0361748/
Awards                           : 1 win & 1 nomination

Complete name                    : Inglourious.Basterds.2009.BRRIP.H264-ZEKTORM.mp4
Format                           : MPEG-4
Format profile                   : Base Media
Codec ID                         : isom
File size                        : 1.56 GiB
Duration                         : 2h 32mn
Overall bit rate                 : 1462 Kbps
Subtitles                        : English (Hardcoded when needed)

Video
Format                           : AVC
Format/Info                      : Advanced Video Codec
Format profile                   : High@L4.1
Format settings, CABAC           : Yes
Format settings, ReFrames        : 10 frames
Codec ID                         : avc1
Codec ID/Info                    : Advanced Video Coding
Duration                         : 2h 32mn
Bit rate mode                    : Variable
Bit rate                         : 1153 Kbps
Width                            : 1280 pixels
Height                           : 528 pixels
Display aspect ratio             : 2.424
Frame rate mode                  : Constant
Frame rate                       : 23.976 fps
Resolution                       : 24 bits
Colorimetry                      : 4:2:0
Scan type                        : Progressive
Bits/(Pixel*Frame)               : 0.071
Stream size                      : 1.23 GiB (79%)
Title                            : Video
Writing library                  : x264

Audio #1
Format                           : AAC
Format/Info                      : Advanced Audio Codec
Format version                   : Version 4
Format profile                   : LC
Format settings, SBR             : No
Codec ID                         : 40
Duration                         : 2h 32mn
Bit rate mode                    : Variable
Bit rate                         : 241 Kbps
Maximum bit rate                 : 414 Kbps
Channel(s)                       : 6 channels
Channel positions                : Front: L C R, Rear: L R, LFE
Sampling rate                    : 48.0 KHz
Resolution                       : 16 bits
Stream size                      : 264 MiB (17%)
Title                            : English
Language                         : English, German, French

Audio #2
Format                           : AAC
Format/Info                      : Advanced Audio Codec
Format version                   : Version 4
Format profile                   : LC
Format settings, SBR             : Yes
Format settings, PS              : No
Codec ID                         : 40
Duration                         : 2h 32mn
Bit rate mode                    : Variable
Bit rate                         : 63.3 Kbps
Maximum bit rate                 : 104 Kbps
Channel(s)                       : 2 channels
Channel positions                : L R
Sampling rate                    : 48.0 KHz
Resolution                       : 16 bits
Stream size                      : 69.3 MiB (4%)
Title                            : English
Language                         : English, German, French
